<?xml version="1.0" encoding="utf-8"?><!-- Uploaded to: SVG Repo, www.svgrepo.com, Generator: SVG Repo Mixer Tools -->
<svg width="800px" height="800px" viewBox="0 0 24 24" xmlns="http://www.w3.org/2000/svg" id="package" class="icon glyph"><path d="M22,8.5V20a2,2,0,0,1-2,2H4a2,2,0,0,1-2-2V8.5H8V15a1,1,0,0,0,.42.81,1,1,0,0,0,.9.14l2.68-.9,2.68.9A1.19,1.19,0,0,0,15,16a.94.94,0,0,0,.58-.19A1,1,0,0,0,16,15V8.5Zm-.14-1h0a.83.83,0,0,0-.16-.21L17,2.58A2,2,0,0,0,15.59,2H8.41A2,2,0,0,0,7,2.58L2.29,7.29a.83.83,0,0,0-.16.21H21.86Z" style="fill:#231f20"></path></svg>