<svg width="340" height="324" viewBox="0 0 340 324" fill="none" xmlns="http://www.w3.org/2000/svg">
<path d="M160.489 7.2705C163.483 -1.94261 176.517 -1.9426 179.511 7.27051L212.658 109.287C213.996 113.407 217.836 116.197 222.168 116.197H329.434C339.122 116.197 343.149 128.593 335.312 134.287L248.532 197.336C245.027 199.883 243.561 204.396 244.899 208.517L278.047 310.533C281.04 319.746 270.495 327.407 262.658 321.713L175.878 258.664C172.373 256.117 167.627 256.117 164.122 258.664L77.3419 321.713C69.5048 327.407 58.96 319.746 61.9535 310.533L95.1006 208.517C96.4393 204.396 94.9728 199.883 91.4679 197.336L4.68766 134.287C-3.14947 128.593 0.878299 116.197 10.5655 116.197H117.832C122.164 116.197 126.004 113.407 127.342 109.287L160.489 7.2705Z" fill="#FFCC00"/>
</svg>
