<svg width="400" height="400" viewBox="0 0 400 400" fill="none" xmlns="http://www.w3.org/2000/svg">
<path d="M190.489 29.2705C193.483 20.0574 206.517 20.0574 209.511 29.2705L242.658 131.287C243.996 135.407 247.836 138.197 252.168 138.197H359.434C369.122 138.197 373.149 150.593 365.312 156.287L278.532 219.336C275.027 221.883 273.561 226.396 274.899 230.517L308.047 332.533C311.04 341.746 300.495 349.407 292.658 343.713L205.878 280.664C202.373 278.117 197.627 278.117 194.122 280.664L107.342 343.713C99.5048 349.407 88.96 341.746 91.9535 332.533L125.101 230.517C126.439 226.396 124.973 221.883 121.468 219.336L34.6877 156.287C26.8505 150.593 30.8783 138.197 40.5655 138.197H147.832C152.164 138.197 156.004 135.407 157.342 131.287L190.489 29.2705Z" fill="#FFCC00"/>
<path d="M190.489 79.2705C193.483 70.0574 206.517 70.0574 209.511 79.2705L231.432 146.738C232.771 150.858 236.61 153.647 240.943 153.647H311.882C321.569 153.647 325.597 166.044 317.759 171.738L260.369 213.435C256.864 215.981 255.397 220.495 256.736 224.615L278.657 292.082C281.651 301.295 271.106 308.956 263.269 303.262L205.878 261.565C202.373 259.019 197.627 259.019 194.122 261.565L136.731 303.262C128.894 308.956 118.349 301.295 121.343 292.082L143.264 224.615C144.603 220.495 143.136 215.981 139.631 213.435L82.2405 171.738C74.4034 166.044 78.4311 153.647 88.1184 153.647H159.057C163.39 153.647 167.229 150.858 168.568 146.738L190.489 79.2705Z" fill="white"/>
<rect width="18" height="209" transform="matrix(-1 0 0 1 200 62)" fill="#FFCC00"/>
<rect width="18" height="170" transform="matrix(-1 0 0 1 144 143)" fill="#FFCC00"/>
<rect width="25" height="158" transform="matrix(-1 0 0 1 169 139)" fill="#FFCC00"/>
<rect width="13" height="182" transform="matrix(-1 0 0 1 182 101)" fill="#FFCC00"/>
<rect width="21" height="37" transform="matrix(-1 0 0 1 136 278)" fill="#FFCC00"/>
<rect width="26" height="60" transform="matrix(-1 0 0 1 136 149)" fill="#FFCC00"/>
<rect width="38" height="38" transform="matrix(-1 0 0 1 115 143)" fill="#FFCC00"/>
<rect width="26" height="22" transform="matrix(-1 0 0 1 118 172)" fill="#FFCC00"/>
</svg>
